<!-- user-avatar.svg -->
<svg xmlns="http://www.w3.org/2000/svg" width="512" height="512" viewBox="0 0 512 512" role="img" aria-label="User avatar">
  <!-- background circle -->
  <circle cx="256" cy="256" r="250" fill="#F3F4F6"></circle>
  <!-- shoulder/torso -->
  <path d="M128 384c0-61.856 50.144-112 112-112h40c61.856 0 112 50.144 112 112v12c0 8.837-7.163 16-16 16H144c-8.837 0-16-7.163-16-16v-12z" fill="#E5E7EB"></path>
  <!-- neckline shadow -->
  <path d="M144 392c0-52.934 43.066-96 96-96h32c52.934 0 96 43.066 96 96v8H144v-8z" fill="#D1D5DB"></path>
  <!-- head -->
  <circle cx="256" cy="180" r="92" fill="#FFF"></circle>
  <!-- facial shadow (subtle) -->
  <path d="M256 100c44.112 0 80 35.888 80 80s-35.888 80-80 80-80-35.888-80-80 35.888-80 80-80z" fill="#F8FAFC" opacity="0.6"></path>
  <!-- outline (stroke) -->
  <g fill="none" stroke="#9CA3AF" stroke-width="14" stroke-linecap="round" stroke-linejoin="round">
    <circle cx="256" cy="180" r="92"></circle>
    <path d="M128 384c0-61.856 50.144-112 112-112h40c61.856 0 112 50.144 112 112v12c0 8.837-7.163 16-16 16H144c-8.837 0-16-7.163-16-16v-12z"></path>
    <circle cx="256" cy="256" r="240"></circle>
  </g>
</svg>
